<svg width="193" height="65" viewBox="0 0 193 65" fill="none" xmlns="http://www.w3.org/2000/svg">
<g clip-path="url(#clip0_1_18)">
<path d="M121.988 58.6315H117.313C117.352 59.1218 117.53 59.514 117.856 59.8082C118.182 60.1059 118.581 60.2529 119.057 60.2529C119.74 60.2529 120.22 59.9693 120.5 59.3985H121.866C121.68 59.9623 121.344 60.421 120.861 60.7817C120.374 61.1425 119.775 61.321 119.057 61.321C118.472 61.321 117.947 61.188 117.485 60.9253C117.023 60.6627 116.658 60.2915 116.396 59.8152C116.133 59.3389 116 58.7856 116 58.1553C116 57.5249 116.126 56.9716 116.382 56.4953C116.637 56.0191 116.998 55.6479 117.46 55.3887C117.923 55.1296 118.455 55 119.054 55C119.653 55 120.146 55.1261 120.598 55.3782C121.05 55.6304 121.4 55.9841 121.652 56.4393C121.904 56.8946 122.03 57.4199 122.03 58.0117C122.03 58.2428 122.016 58.4494 121.985 58.635L121.988 58.6315ZM120.71 57.609C120.703 57.1432 120.535 56.7685 120.209 56.4883C119.884 56.2082 119.481 56.0646 118.998 56.0646C118.56 56.0646 118.185 56.2047 117.877 56.4813C117.565 56.758 117.38 57.1362 117.32 57.609H120.707H120.71Z" fill="#7BC441"/>
<path d="M131.695 55.2977C132.077 55.4973 132.378 55.7949 132.595 56.1872C132.813 56.5794 132.925 57.0522 132.925 57.609V61.2195H131.671V57.7981C131.671 57.2518 131.534 56.8315 131.261 56.5374C130.988 56.2467 130.613 56.0996 130.141 56.0996C129.668 56.0996 129.29 56.2467 129.013 56.5374C128.736 56.8315 128.596 57.2518 128.596 57.7981V61.2195H127.342V57.7981C127.342 57.2518 127.206 56.8315 126.933 56.5374C126.66 56.2467 126.285 56.0996 125.812 56.0996C125.339 56.0996 124.961 56.2467 124.684 56.5374C124.408 56.8315 124.268 57.2518 124.268 57.7981V61.2195H123V55.0981H124.268V55.7985C124.474 55.5463 124.737 55.3502 125.056 55.2101C125.374 55.07 125.714 55 126.078 55C126.569 55 127.003 55.1051 127.388 55.3117C127.773 55.5183 128.071 55.8195 128.277 56.2117C128.463 55.8405 128.75 55.5463 129.142 55.3292C129.535 55.1121 129.958 55 130.41 55C130.89 55 131.324 55.1016 131.706 55.3012L131.695 55.2977Z" fill="#7BC441"/>
<path d="M136.147 55.2872C136.518 55.0946 136.935 55 137.4 55C137.933 55 138.419 55.1331 138.861 55.3957C139.302 55.6584 139.649 56.0261 139.901 56.5023C140.153 56.9751 140.279 57.5214 140.279 58.1343C140.279 58.7471 140.153 59.3004 139.901 59.7837C139.649 60.2705 139.302 60.6452 138.861 60.9183C138.419 61.188 137.933 61.3246 137.4 61.3246C136.935 61.3246 136.518 61.23 136.157 61.0409C135.793 60.8518 135.499 60.6172 135.268 60.337V64.1366H134V55.1051H135.268V56.0051C135.481 55.7249 135.775 55.4868 136.147 55.2942V55.2872ZM138.728 57.0346C138.553 56.7265 138.325 56.4953 138.038 56.3343C137.754 56.1767 137.446 56.0961 137.12 56.0961C136.795 56.0961 136.5 56.1767 136.217 56.3413C135.933 56.5058 135.702 56.7405 135.527 57.0522C135.352 57.3638 135.264 57.7315 135.264 58.1518C135.264 58.572 135.352 58.9432 135.527 59.2584C135.702 59.5736 135.93 59.8117 136.217 59.9763C136.5 60.1409 136.805 60.2214 137.12 60.2214C137.435 60.2214 137.751 60.1374 138.038 59.9728C138.321 59.8047 138.553 59.5631 138.728 59.2444C138.903 58.9257 138.987 58.5545 138.987 58.1343C138.987 57.714 138.899 57.3463 138.728 57.0416V57.0346Z" fill="#7BC441"/>
<path d="M144.007 55.2626C144.315 55.0875 144.679 55 145.099 55V56.3097H144.777C144.28 56.3097 143.905 56.4358 143.649 56.688C143.394 56.9401 143.268 57.3778 143.268 57.9977V61.2195H142V55.0981H143.268V55.9876C143.453 55.6759 143.698 55.4342 144.007 55.2591V55.2626Z" fill="#7BC441"/>
<path d="M151.988 58.6315H147.313C147.352 59.1218 147.53 59.514 147.856 59.8082C148.182 60.1059 148.581 60.2529 149.057 60.2529C149.74 60.2529 150.22 59.9693 150.5 59.3985H151.866C151.68 59.9623 151.344 60.421 150.861 60.7817C150.374 61.1425 149.775 61.321 149.057 61.321C148.472 61.321 147.947 61.188 147.485 60.9253C147.023 60.6627 146.658 60.2915 146.396 59.8152C146.133 59.3389 146 58.7856 146 58.1553C146 57.5249 146.126 56.9716 146.382 56.4953C146.637 56.0191 146.998 55.6479 147.46 55.3887C147.923 55.1296 148.455 55 149.054 55C149.653 55 150.146 55.1261 150.598 55.3782C151.05 55.6304 151.4 55.9841 151.652 56.4393C151.904 56.8946 152.03 57.4199 152.03 58.0117C152.03 58.2428 152.016 58.4494 151.985 58.635L151.988 58.6315ZM150.714 57.609C150.707 57.1432 150.539 56.7685 150.213 56.4883C149.887 56.2082 149.484 56.0646 149.001 56.0646C148.563 56.0646 148.189 56.2047 147.881 56.4813C147.569 56.758 147.383 57.1362 147.324 57.609H150.71H150.714Z" fill="#7BC441"/>
<path d="M153.235 54.3903C153.081 54.2362 153 54.0436 153 53.8125C153 53.5813 153.077 53.3887 153.235 53.2346C153.392 53.0805 153.581 53 153.812 53C154.044 53 154.222 53.077 154.38 53.2346C154.534 53.3887 154.614 53.5813 154.614 53.8125C154.614 54.0436 154.537 54.2362 154.38 54.3903C154.226 54.5444 154.037 54.6249 153.812 54.6249C153.588 54.6249 153.389 54.5479 153.235 54.3903ZM154.436 55.4339V61.5553H153.168V55.4339H154.436Z" fill="#7BC441"/>
<path d="M157 56.5564V59.9428C157 60.174 157.052 60.3386 157.161 60.4366C157.269 60.5382 157.451 60.5872 157.711 60.5872H158.488V61.6413H157.486C156.916 61.6413 156.478 61.5082 156.177 61.2421C155.872 60.9759 155.721 60.5417 155.721 59.9428V56.5564H155V55.5234H155.721V54H157V55.5234H158.488V56.5564H157Z" fill="#7BC441"/>
<path d="M165.988 58.6315H161.313C161.352 59.1218 161.53 59.514 161.856 59.8082C162.182 60.1059 162.581 60.2529 163.057 60.2529C163.74 60.2529 164.22 59.9693 164.5 59.3985H165.866C165.68 59.9623 165.344 60.421 164.861 60.7817C164.374 61.1425 163.775 61.321 163.057 61.321C162.472 61.321 161.947 61.188 161.485 60.9253C161.023 60.6627 160.658 60.2915 160.396 59.8152C160.133 59.3389 160 58.7856 160 58.1553C160 57.5249 160.126 56.9716 160.382 56.4953C160.637 56.0191 160.998 55.6479 161.46 55.3887C161.923 55.1296 162.455 55 163.054 55C163.653 55 164.146 55.1261 164.598 55.3782C165.05 55.6304 165.4 55.9841 165.652 56.4393C165.904 56.8946 166.03 57.4199 166.03 58.0117C166.03 58.2428 166.016 58.4494 165.985 58.635L165.988 58.6315ZM164.71 57.609C164.703 57.1432 164.535 56.7685 164.209 56.4883C163.884 56.2082 163.481 56.0646 162.998 56.0646C162.56 56.0646 162.185 56.2047 161.877 56.4813C161.565 56.758 161.38 57.1362 161.32 57.609H164.707H164.71Z" fill="#7BC441"/>
<path d="M167.235 54.3903C167.081 54.2362 167 54.0436 167 53.8125C167 53.5813 167.077 53.3887 167.235 53.2346C167.392 53.0805 167.581 53 167.812 53C168.044 53 168.222 53.077 168.38 53.2346C168.534 53.3887 168.614 53.5813 168.614 53.8125C168.614 54.0436 168.537 54.2362 168.38 54.3903C168.226 54.5444 168.037 54.6249 167.812 54.6249C167.588 54.6249 167.389 54.5479 167.235 54.3903ZM168.436 55.4339V61.5553H167.168V55.4339H168.436Z" fill="#7BC441"/>
<path d="M172.007 55.2626C172.315 55.0875 172.679 55 173.099 55V56.3097H172.777C172.28 56.3097 171.905 56.4358 171.649 56.688C171.394 56.9401 171.268 57.3778 171.268 57.9977V61.2195H170V55.0981H171.268V55.9876C171.453 55.6759 171.698 55.4342 172.007 55.2591V55.2626Z" fill="#7BC441"/>
<path d="M174.385 56.5023C174.641 56.0296 174.988 55.6584 175.429 55.3957C175.87 55.1331 176.357 55 176.889 55C177.369 55 177.789 55.0946 178.15 55.2837C178.511 55.4728 178.794 55.7074 179.011 55.9876V55.0981H180.29V61.2195H179.011V60.309C178.798 60.5961 178.504 60.8378 178.132 61.0304C177.761 61.223 177.341 61.3176 176.865 61.3176C176.339 61.3176 175.856 61.181 175.422 60.9113C174.984 60.6417 174.637 60.2635 174.382 59.7767C174.126 59.2899 174 58.7401 174 58.1273C174 57.5144 174.126 56.9681 174.382 56.4953L174.385 56.5023ZM178.752 57.0557C178.577 56.744 178.349 56.5093 178.069 56.3448C177.789 56.1802 177.484 56.0996 177.159 56.0996C176.833 56.0996 176.528 56.1802 176.248 56.3378C175.968 56.4953 175.74 56.73 175.565 57.0381C175.39 57.3463 175.303 57.7105 175.303 58.1308C175.303 58.551 175.39 58.9222 175.565 59.2409C175.74 59.5596 175.968 59.8012 176.255 59.9693C176.539 60.1374 176.844 60.2179 177.162 60.2179C177.481 60.2179 177.793 60.1374 178.073 59.9728C178.353 59.8117 178.581 59.5701 178.756 59.2549C178.931 58.9397 179.018 58.572 179.018 58.1483C179.018 57.7245 178.931 57.3603 178.756 57.0487L178.752 57.0557Z" fill="#7BC441"/>
<path d="M77.3658 51.8119L77.2292 51.129C77.2292 50.6738 77.4323 50.4462 77.842 50.4462H85.4168C85.6444 50.4462 85.8475 50.6038 86.0296 50.9224L86.1662 51.3322C86.667 52.88 87.5425 53.8921 88.7927 54.3684C90.0429 54.8446 91.6923 55.0863 93.741 55.0863C97.0153 55.0863 99.3721 54.3474 100.804 52.8695C102.237 51.3917 102.955 49.217 102.955 46.3524V44.9866C101.634 46.3068 100.041 47.2839 98.178 47.9212C96.3114 48.5586 94.2873 48.8773 92.1055 48.8773C88.6946 48.8773 85.7915 48.1174 83.4032 46.5905C81.0148 45.0671 79.2043 42.9835 77.9786 40.3465C77.0681 38.4344 76.5113 36.5258 76.3082 34.6138C76.1051 32.7017 76 30.8141 76 28.9476C76 27.3542 76.1471 25.7398 76.4448 24.1009C76.7389 22.4619 77.2747 20.872 78.0487 19.3242C79.3689 16.7782 81.2004 14.7506 83.5432 13.2518C85.8861 11.7494 88.7402 11 92.109 11C94.2943 11 96.3639 11.3397 98.318 12.0226C100.272 12.7055 101.957 13.7525 103.368 15.1603V13.3848C103.368 12.8841 103.525 12.4638 103.844 12.1206C104.163 11.7809 104.594 11.6093 105.14 11.6093H109.507C110.144 11.6093 110.645 11.7914 111.009 12.1556C111.373 12.5199 111.555 13.0206 111.555 13.658V46.3489C111.555 48.8072 111.181 51.045 110.428 53.0726C109.678 55.0968 108.561 56.8267 107.083 58.2591C105.606 59.6914 103.75 60.7945 101.522 61.5684C99.2916 62.3423 96.7001 62.7276 93.741 62.7276C91.6923 62.7276 89.7487 62.5455 87.9067 62.1813C86.0647 61.8171 84.4012 61.2147 82.9234 60.3742C81.4456 59.5303 80.2164 58.4166 79.2393 57.0299C78.2588 55.6431 77.6354 53.9026 77.3623 51.8084L77.3658 51.8119ZM102.958 32.2254V26.969C102.958 25.7398 102.72 24.6157 102.24 23.5896C101.76 22.5635 101.102 21.667 100.262 20.8931C99.4176 20.1191 98.4056 19.5168 97.2254 19.086C96.0418 18.6553 94.767 18.4382 93.4048 18.4382C91.0374 18.4382 88.9678 19.3242 87.1958 21.0997C86.1942 22.1468 85.5113 23.3514 85.1471 24.7172C84.7829 26.083 84.6008 27.4943 84.6008 28.9476V30.2433C84.6008 31.7912 84.7829 33.304 85.1471 34.7819C85.5113 36.2597 86.2152 37.5449 87.2623 38.6375C88.9468 40.4586 90.9919 41.3691 93.4048 41.3691C94.9071 41.3691 96.2484 41.1414 97.432 40.6862C98.6157 40.2309 99.6173 39.5936 100.433 38.7741C101.253 37.9546 101.876 36.9881 102.31 35.8745C102.741 34.7609 102.958 33.5422 102.958 32.2219V32.2254Z" fill="#444444"/>
<path d="M167.671 3.04865V46.7287C167.671 47.366 167.489 47.8668 167.125 48.231C166.761 48.5952 166.26 48.7773 165.623 48.7773H161.049C160.002 48.7773 159.48 48.252 159.48 47.2085V45.6396C158.433 46.7777 157.159 47.6882 155.66 48.3711C154.157 49.054 152.452 49.3937 150.54 49.3937C148.081 49.3937 145.945 48.9594 144.124 48.098C142.307 47.233 140.871 45.8917 139.824 44.0707C138.637 45.6641 137.155 46.9493 135.376 47.9264C133.597 48.9034 131.475 49.3937 129.01 49.3937C126.362 49.3937 124.195 48.9489 122.507 48.0629C120.819 47.1769 119.495 46.0388 118.535 44.652C117.579 43.2652 116.914 41.6929 116.55 39.9419C116.186 38.1909 116 36.4504 116 34.7204V14.1709C116 13.5335 116.182 13.0328 116.55 12.6686C116.918 12.3043 117.422 12.1222 118.063 12.1222H122.535C123.176 12.1222 123.68 12.3043 124.048 12.6686C124.415 13.0328 124.597 13.5335 124.597 14.1709V33.4212C124.597 34.6049 124.678 35.708 124.835 36.7306C124.997 37.7531 125.291 38.6426 125.721 39.3921C126.156 40.1415 126.779 40.7333 127.599 41.1676C128.418 41.5983 129.465 41.8154 130.736 41.8154C131.829 41.8154 132.806 41.5773 133.671 41.0975C134.536 40.6213 135.254 39.9804 135.821 39.1855C136.392 38.3905 136.823 37.4905 137.117 36.4889C137.415 35.4874 137.562 34.4648 137.562 33.4177V10.0561C137.562 9.41873 137.744 8.91795 138.108 8.55374C138.472 8.18954 138.973 8.00744 139.61 8.00744H144.114C144.751 8.00744 145.252 8.18954 145.616 8.55374C145.98 8.91795 146.162 9.41873 146.162 10.0561V33.4212C146.162 34.6049 146.243 35.708 146.401 36.7306C146.562 37.7531 146.856 38.6426 147.287 39.3921C147.721 40.1415 148.334 40.7333 149.129 41.1676C149.924 41.5983 150.96 41.8154 152.235 41.8154C153.327 41.8154 154.304 41.5773 155.169 41.0975C156.034 40.6213 156.752 39.9804 157.32 39.1855C157.89 38.3905 158.321 37.4905 158.615 36.4889C158.913 35.4874 159.06 34.4648 159.06 33.4177V3.04865C159.06 2.41129 159.242 1.91051 159.606 1.54631C159.971 1.1821 160.471 1 161.109 1H165.612C166.25 1 166.75 1.1821 167.115 1.54631C167.479 1.91051 167.661 2.41129 167.661 3.04865H167.671Z" fill="#444444"/>
<path d="M171.004 46.8321V13.665C171.004 13.0276 171.186 12.5269 171.55 12.1627C171.914 11.7984 172.415 11.6163 173.052 11.6163H177.626C178.673 11.6163 179.195 12.1416 179.195 13.1852V14.7541C180.242 13.616 181.502 12.7055 182.984 12.0226C184.462 11.3397 186.181 11 188.135 11C188.772 11 189.431 11.0245 190.114 11.0665C190.797 11.1121 191.501 11.2486 192.229 11.4763L192.705 11.6128C192.978 11.7039 193.115 11.9105 193.115 12.2257V18.7779C193.115 19.4608 192.796 19.6884 192.159 19.4608L191.273 19.051C190.681 18.8234 190.135 18.6868 189.634 18.6413C189.133 18.5958 188.517 18.5713 187.792 18.5713C186.472 18.5713 185.313 18.8094 184.311 19.2892C183.309 19.7654 182.455 20.4063 181.751 21.2012C181.044 21.9962 180.511 22.9312 180.147 23.9993C179.783 25.0674 179.601 26.174 179.601 27.3087V46.8286C179.601 47.466 179.419 47.9668 179.055 48.331C178.69 48.6952 178.19 48.8773 177.552 48.8773H173.049C172.411 48.8773 171.911 48.6952 171.546 48.331C171.182 47.9668 171 47.466 171 46.8286L171.004 46.8321Z" fill="#444444"/>
<path d="M32.1481 64.2996C30.2885 64.2996 28.5375 63.5747 27.2208 62.2579L2.04165 37.0753C0.724907 35.7586 0 34.0111 0 32.148C0 30.285 0.724907 28.5375 2.04165 27.2208L27.2243 2.04165C28.541 0.724907 30.2885 0 32.1516 0C34.0146 0 35.7621 0.724907 37.0788 2.04165L62.2615 27.2243C64.979 29.9418 64.979 34.3613 62.2615 37.0753L37.0788 62.2579C35.7621 63.5747 34.0146 64.2996 32.1516 64.2996H32.1481Z" fill="#298ACC"/>
<path d="M32.4949 0.700393C34.1899 0.700393 35.8813 1.34476 37.1736 2.63698L62.3562 27.8196C64.9407 30.4041 64.9407 34.5924 62.3562 37.1769L37.1736 62.3595C35.8813 63.6517 34.1899 64.2961 32.4949 64.2961C30.8 64.2961 29.1085 63.6517 27.8163 62.3595L2.63364 37.1769C0.0491857 34.5924 0.0491857 30.4041 2.63364 27.8196L27.8163 2.63698C29.1085 1.34476 30.8 0.700393 32.4949 0.700393ZM32.4949 0C30.5408 0 28.7023 0.759927 27.3225 2.1432L2.13986 27.3258C-0.714243 30.1799 -0.714243 34.8201 2.13986 37.6742L27.3225 62.8568C28.7058 64.2401 30.5408 65 32.4949 65C34.449 65 36.2876 64.2401 37.6673 62.8568L62.85 37.6742C65.7041 34.8201 65.7041 30.1799 62.85 27.3258L37.6708 2.1432C36.2876 0.759927 34.4525 0 32.4984 0H32.4949Z" fill="white"/>
<path d="M18.693 36.4694L20.0693 37.7231V40.5912L16.6864 37.506C16.2486 37.1067 16 36.5394 16 35.9476V20.1117C16 18.9455 16.9455 18 18.1117 18H27.4514C28.0257 18 28.5405 18.4307 28.5686 19.0051C28.6001 19.6179 28.1133 20.1222 27.511 20.1222H18.8226C18.4374 20.1222 18.1222 20.4374 18.1222 20.8226V35.1772C18.1222 35.6709 18.3288 36.1402 18.693 36.4729V36.4694Z" fill="white"/>
<path d="M29.1864 30.1096V43.9144C29.1864 44.7093 28.7802 45.4692 28.0833 45.851C27.7576 46.0296 27.4074 46.1136 27.0677 46.1136C26.5564 46.1136 26.0522 45.9245 25.6529 45.5568L24 44.0474V41.1758L26.4794 43.4381C26.7035 43.6447 27.0642 43.4836 27.0642 43.179V30.1166C26.4829 30.1096 26.0136 29.6368 26.0136 29.0555C26.0136 28.3901 26.6545 27.9314 27.3164 28.0084C28.367 28.131 29.1829 29.024 29.1829 30.1061L29.1864 30.1096Z" fill="white"/>
<path d="M46.4604 18H38.1117C36.9455 18 36 18.9455 36 20.1117V44.699C36 45.2103 36.3467 45.6831 36.8475 45.7811C37.5234 45.9142 38.2097 45.3959 38.2097 44.741V36.5849C38.2097 36.4098 38.2798 36.2418 38.3988 36.1157L40.9833 33.3386V30.2569L38.7245 32.6347C38.5074 32.8659 38.1187 32.7118 38.1187 32.3931V20.4724C38.1187 20.2798 38.2763 20.1222 38.4689 20.1222H45.746C46.1312 20.1222 46.4464 20.4339 46.4464 20.8226V24.209C46.4499 24.3876 46.3833 24.5627 46.2573 24.6923L44.4222 26.6253V29.7071L44.9685 29.1328L46.4639 27.5569L47.9907 25.9495C48.3619 25.5572 48.5651 25.0425 48.5651 24.4997V20.1152C48.5651 18.949 47.6195 18.0035 46.4534 18.0035L46.4604 18Z" fill="white"/>
<path d="M49.1358 31.5715V41.8883C49.1358 42.3996 48.7891 42.8724 48.2883 42.9704C47.6125 43.1035 47.0171 42.5852 47.0171 41.9303V32.2194C47.0171 31.7991 46.8911 31.3894 46.6564 31.0392L45.5428 29.3968L45 28.5949V28.5843V27.5303C45.0946 27.3587 45.2416 27.2151 45.4342 27.1135C45.9175 26.8614 46.5163 27.047 46.821 27.4952L47.0381 27.8174L48.7786 30.3844C49.0168 30.7345 49.1428 31.1443 49.1428 31.568L49.1358 31.5715Z" fill="white"/>
<path d="M44.3231 24.6182V45.4129C44.3231 46.0082 44.0709 46.5756 43.6297 46.9748L34.0658 55.6666C33.6631 56.0344 33.1553 56.2165 32.6475 56.2165C32.1397 56.2165 31.632 56.0309 31.2257 55.6632L21.6864 46.9643C21.2486 46.565 21 45.9977 21 45.4059V24.5902C21 24.0159 21.4307 23.5011 22.0051 23.4731C22.6179 23.4416 23.1222 23.9283 23.1222 24.5307V45.4059L31.0051 52.5919C31.2292 52.7985 31.5899 52.6375 31.5899 52.3328V18.1186C31.5899 17.5443 32.0207 17.0295 32.595 17.0014C33.2078 16.9699 33.7121 17.4567 33.7121 18.059V52.3398C33.7121 52.6445 34.0728 52.802 34.297 52.5989L42.2079 45.4094V24.5622C42.2079 23.9564 42.7122 23.4731 43.3215 23.5046C43.8958 23.5361 44.3266 24.0474 44.3266 24.6217L44.3231 24.6182Z" fill="white"/>
</g>
<defs>
<clipPath id="clip0_1_18">
<rect width="192.825" height="65" fill="white"/>
</clipPath>
</defs>
</svg>
